<?xml version="1.0" standalone="no"?>
<!DOCTYPE svg PUBLIC "-//W3C//DTD SVG 20010904//EN"
 "http://www.w3.org/TR/2001/REC-SVG-20010904/DTD/svg10.dtd">
<svg version="1.0" xmlns="http://www.w3.org/2000/svg"
 width="746.000000pt" height="746.000000pt" viewBox="0 0 746.000000 746.000000"
 preserveAspectRatio="xMidYMid meet">
<metadata>
Created by potrace 1.11, written by Peter Selinger 2001-2013
</metadata>
<g transform="translate(0.000000,746.000000) scale(0.100000,-0.100000)"
fill="#000000" stroke="none">
<path d="M3707 7013 c-9 -21 -100 -249 -203 -508 -102 -258 -214 -541 -249
-627 -35 -87 -61 -159 -57 -159 4 -1 244 -2 535 -3 348 -1 526 2 523 9 -99
253 -517 1299 -525 1313 -5 9 -13 1 -24 -25z"/>
<path d="M1100 6071 c0 -5 17 -40 38 -78 21 -37 69 -126 107 -198 37 -71 75
-143 85 -160 9 -16 46 -84 80 -150 35 -66 93 -176 130 -245 37 -69 95 -179
130 -245 55 -105 97 -182 106 -194 3 -3 165 139 194 169 3 3 46 41 95 85 103
90 148 131 220 196 27 25 65 59 84 75 81 69 165 154 153 154 -7 0 -32 9 -55
19 -23 10 -150 65 -282 121 -132 56 -314 133 -405 172 -194 83 -213 91 -220
93 -3 1 -21 8 -40 17 -19 8 -80 34 -135 57 -55 23 -113 48 -130 56 -36 16
-101 43 -132 56 -14 5 -23 5 -23 0z"/>
<path d="M6225 6029 c-60 -26 -131 -57 -156 -69 -25 -11 -48 -20 -51 -20 -4 0
-41 -16 -82 -35 -42 -19 -78 -35 -81 -35 -3 0 -24 -9 -48 -19 -23 -11 -73 -33
-112 -49 -38 -16 -203 -86 -365 -155 -162 -69 -321 -136 -353 -149 l-57 -24
47 -45 c27 -24 84 -76 127 -114 44 -39 89 -79 101 -90 11 -11 56 -51 100 -90
43 -38 83 -75 89 -80 58 -54 286 -255 290 -255 2 0 21 33 41 73 21 39 50 95
65 122 15 28 51 95 80 150 62 117 113 212 165 310 21 39 60 113 88 165 27 52
78 147 112 210 33 63 71 136 84 162 12 27 27 50 32 54 11 6 12 34 2 33 -5 -1
-57 -23 -118 -50z"/>
<path d="M3607 5394 c-1 -1 -33 -5 -72 -9 -87 -8 -116 -12 -152 -19 -15 -3
-44 -8 -63 -11 -210 -34 -503 -155 -710 -293 -314 -209 -552 -511 -663 -842
-65 -193 -83 -308 -80 -520 8 -729 560 -1370 1350 -1571 62 -16 134 -31 160
-35 27 -3 57 -8 68 -10 109 -22 450 -22 571 0 10 2 37 7 59 11 22 4 51 9 65
12 273 49 618 210 845 395 126 103 295 297 377 433 93 155 173 355 193 482 3
21 8 45 10 53 12 37 16 95 19 239 3 180 -14 301 -69 476 -91 291 -285 574
-530 770 -28 22 -52 43 -55 46 -18 22 -211 138 -313 188 -112 55 -273 118
-322 127 -11 2 -56 12 -99 23 -43 11 -102 23 -130 26 -28 4 -54 9 -57 10 -15
10 -393 27 -402 19z"/>
<path d="M1475 4199 c-11 -4 -101 -33 -200 -64 -99 -31 -205 -64 -235 -75 -30
-10 -129 -41 -220 -69 -91 -29 -190 -60 -220 -70 -30 -10 -136 -44 -235 -76
-327 -103 -345 -109 -345 -115 0 -3 89 -34 198 -69 108 -34 303 -96 432 -138
129 -41 321 -102 425 -135 105 -33 242 -77 305 -98 63 -20 117 -35 119 -33 6
5 7 944 1 948 -3 1 -14 -1 -25 -6z"/>
<path d="M5949 4176 c-1 -40 -1 -885 0 -908 1 -15 8 -14 74 8 39 14 79 27 87
29 8 1 110 33 225 70 116 37 252 80 303 96 51 15 97 31 102 34 6 3 20 8 32 10
20 4 163 49 198 62 8 3 20 7 25 8 6 2 96 30 200 63 105 34 203 64 218 68 16 3
25 10 20 14 -7 7 -336 114 -738 240 -150 47 -523 166 -637 203 l-108 35 -1
-32z"/>
<path d="M1746 2607 c-38 -71 -112 -210 -181 -342 -32 -60 -69 -130 -83 -155
-13 -25 -44 -83 -69 -130 -108 -204 -147 -277 -163 -305 -43 -74 -151 -287
-148 -290 4 -4 200 76 295 121 28 13 55 24 58 24 4 0 36 14 72 30 35 17 67 30
69 30 3 0 24 9 47 19 23 10 220 94 437 186 217 92 408 173 423 180 l29 12
-139 124 c-76 68 -140 126 -143 129 -3 3 -66 59 -140 125 -74 66 -137 122
-140 125 -15 15 -177 157 -185 163 -6 3 -24 -18 -39 -46z"/>
<path d="M5629 2623 c-24 -21 -53 -47 -65 -58 -11 -11 -53 -49 -94 -85 -40
-36 -78 -69 -84 -75 -6 -5 -49 -44 -96 -85 -47 -41 -92 -82 -100 -90 -8 -8
-51 -46 -95 -85 -43 -38 -97 -87 -120 -107 -22 -21 -44 -38 -49 -38 -5 0 -3
-7 4 -15 7 -8 17 -15 22 -15 8 0 126 -49 238 -98 19 -9 37 -16 40 -17 3 -1 16
-6 30 -12 353 -150 513 -218 545 -233 183 -83 545 -231 545 -223 0 3 -25 53
-56 112 -31 58 -79 149 -107 201 -27 52 -60 113 -72 135 -12 22 -45 83 -73
135 -27 52 -66 127 -87 165 -53 99 -113 213 -178 336 -31 58 -67 125 -80 148
l-24 42 -44 -38z"/>
<path d="M3207 1740 c-9 -4 21 -92 104 -300 64 -162 122 -306 127 -320 6 -14
52 -128 102 -255 50 -126 95 -239 100 -250 8 -17 53 -132 74 -190 7 -19 8 -19
21 5 7 14 79 192 160 395 80 204 193 487 250 630 57 143 105 266 107 274 3 12
-72 15 -515 15 -285 1 -523 -1 -530 -4z"/>
</g>
</svg>
